# Blender v2.80 (sub 51) OBJ File: ''
# www.blender.org
mtllib untitled.mtl
o Plane
v -211.743622 0.000000 158.798965
v 211.743622 0.000000 158.798965
v -211.743622 0.000000 -158.798965
v 211.743622 0.000000 -158.798965
vt 0.000000 0.000000
vt 1.000000 0.000000
vt 1.000000 1.000000
vt 0.000000 1.000000
vn 0.0000 1.0000 0.0000
usemtl None
s off
f 1/1/1 2/2/1 4/3/1 3/4/1
o Cube_Cube.001
v -194.187363 -1.572207 1.050564
v -194.274857 0.634051 1.050564
v -194.187363 -1.572207 -7.622979
v -194.274857 0.634051 -7.622979
v -170.528793 -0.634053 1.050564
v -170.616287 1.572205 1.050564
v -170.528793 -0.634053 -7.622979
v -170.616287 1.572205 -7.622979
vt 0.375000 0.000000
vt 0.625000 0.000000
vt 0.625000 0.250000
vt 0.375000 0.250000
vt 0.625000 0.500000
vt 0.375000 0.500000
vt 0.625000 0.750000
vt 0.375000 0.750000
vt 0.625000 1.000000
vt 0.375000 1.000000
vt 0.125000 0.500000
vt 0.125000 0.750000
vt 0.875000 0.500000
vt 0.875000 0.750000
vn -0.9992 -0.0396 0.0000
vn 0.0000 0.0000 -1.0000
vn 0.9992 0.0396 0.0000
vn 0.0000 0.0000 1.0000
vn 0.0396 -0.9992 0.0000
vn -0.0396 0.9992 0.0000
usemtl None
s off
f 5/5/2 6/6/2 8/7/2 7/8/2
f 7/8/3 8/7/3 12/9/3 11/10/3
f 11/10/4 12/9/4 10/11/4 9/12/4
f 9/12/5 10/11/5 6/13/5 5/14/5
f 7/15/6 11/10/6 9/12/6 5/16/6
f 12/9/7 8/17/7 6/18/7 10/11/7
o Cube.001_Cube.002
v 139.297546 -1.570265 1.046475
v 139.210068 0.635978 1.046475
v 139.297546 -1.570265 -7.627068
v 139.210068 0.635978 -7.627068
v 162.858353 -0.635988 1.046475
v 162.770874 1.570256 1.046475
v 162.858353 -0.635988 -7.627068
v 162.770874 1.570256 -7.627068
vt 0.375000 0.000000
vt 0.625000 0.000000
vt 0.625000 0.250000
vt 0.375000 0.250000
vt 0.625000 0.500000
vt 0.375000 0.500000
vt 0.625000 0.750000
vt 0.375000 0.750000
vt 0.625000 1.000000
vt 0.375000 1.000000
vt 0.125000 0.500000
vt 0.125000 0.750000
vt 0.875000 0.500000
vt 0.875000 0.750000
vn -0.9992 -0.0396 0.0000
vn 0.0000 0.0000 -1.0000
vn 0.9992 0.0396 0.0000
vn 0.0000 0.0000 1.0000
vn 0.0396 -0.9992 0.0000
vn -0.0396 0.9992 0.0000
usemtl None
s off
f 13/19/8 14/20/8 16/21/8 15/22/8
f 15/22/9 16/21/9 20/23/9 19/24/9
f 19/24/10 20/23/10 18/25/10 17/26/10
f 17/26/11 18/25/11 14/27/11 13/28/11
f 15/29/12 19/24/12 17/26/12 13/30/12
f 20/23/13 16/31/13 14/32/13 18/25/13
o Cube.002_Cube.003
v -4.953111 -1.572207 -126.484367
v -5.040597 0.634051 -126.484367
v -4.953111 -1.572207 -135.157913
v -5.040597 0.634051 -135.157913
v 18.705456 -0.634053 -126.484367
v 18.617970 1.572205 -126.484367
v 18.705456 -0.634053 -135.157913
v 18.617970 1.572205 -135.157913
vt 0.375000 0.000000
vt 0.625000 0.000000
vt 0.625000 0.250000
vt 0.375000 0.250000
vt 0.625000 0.500000
vt 0.375000 0.500000
vt 0.625000 0.750000
vt 0.375000 0.750000
vt 0.625000 1.000000
vt 0.375000 1.000000
vt 0.125000 0.500000
vt 0.125000 0.750000
vt 0.875000 0.500000
vt 0.875000 0.750000
vn -0.9992 -0.0396 0.0000
vn 0.0000 0.0000 -1.0000
vn 0.9992 0.0396 0.0000
vn 0.0000 0.0000 1.0000
vn 0.0396 -0.9992 0.0000
vn -0.0396 0.9992 0.0000
usemtl None
s off
f 21/33/14 22/34/14 24/35/14 23/36/14
f 23/36/15 24/35/15 28/37/15 27/38/15
f 27/38/16 28/37/16 26/39/16 25/40/16
f 25/40/17 26/39/17 22/41/17 21/42/17
f 23/43/18 27/38/18 25/40/18 21/44/18
f 28/37/19 24/45/19 22/46/19 26/39/19
o Cube.003_Cube.004
v -11.080934 -1.572207 152.303299
v -11.168420 0.634051 152.303299
v -11.080934 -1.572207 143.629745
v -11.168420 0.634051 143.629745
v 12.577634 -0.634053 152.303299
v 12.490148 1.572205 152.303299
v 12.577634 -0.634053 143.629745
v 12.490148 1.572205 143.629745
vt 0.375000 0.000000
vt 0.625000 0.000000
vt 0.625000 0.250000
vt 0.375000 0.250000
vt 0.625000 0.500000
vt 0.375000 0.500000
vt 0.625000 0.750000
vt 0.375000 0.750000
vt 0.625000 1.000000
vt 0.375000 1.000000
vt 0.125000 0.500000
vt 0.125000 0.750000
vt 0.875000 0.500000
vt 0.875000 0.750000
vn -0.9992 -0.0396 0.0000
vn 0.0000 0.0000 -1.0000
vn 0.9992 0.0396 0.0000
vn 0.0000 0.0000 1.0000
vn 0.0396 -0.9992 0.0000
vn -0.0396 0.9992 0.0000
usemtl None
s off
f 29/47/20 30/48/20 32/49/20 31/50/20
f 31/50/21 32/49/21 36/51/21 35/52/21
f 35/52/22 36/51/22 34/53/22 33/54/22
f 33/54/23 34/53/23 30/55/23 29/56/23
f 31/57/24 35/52/24 33/54/24 29/58/24
f 36/51/25 32/59/25 30/60/25 34/53/25
